<?xml version="1.0" standalone="no"?>
<!DOCTYPE svg PUBLIC "-//W3C//DTD SVG 20010904//EN"
 "http://www.w3.org/TR/2001/REC-SVG-20010904/DTD/svg10.dtd">
<svg version="1.0" xmlns="http://www.w3.org/2000/svg"
 width="405.000000pt" height="124.000000pt" viewBox="0 0 405.000000 124.000000"
 preserveAspectRatio="xMidYMid meet">

<g transform="translate(0.000000,124.000000) scale(0.100000,-0.100000)"
fill="#000000" stroke="none">
<path d="M385 1098 c-21 -25 -34 -32 -56 -30 -16 2 -29 -1 -29 -7 0 -6 -11
-17 -25 -23 -14 -6 -24 -17 -21 -24 3 -7 -2 -18 -10 -24 -16 -14 -19 -40 -4
-40 6 0 10 -15 10 -32 1 -46 33 -82 65 -74 14 4 25 13 25 21 0 31 16 13 42
-45 19 -43 31 -60 45 -59 15 1 15 2 1 6 -15 4 -58 87 -58 112 0 6 -11 11 -25
11 -35 0 -33 28 3 32 23 3 27 7 27 36 0 19 -3 36 -8 39 -14 8 3 22 20 16 11
-4 14 -3 9 5 -5 8 -2 10 8 6 9 -3 16 -1 16 5 0 6 7 11 15 11 8 0 15 -7 15 -16
0 -8 5 -12 10 -9 6 4 8 10 5 14 -2 5 0 22 4 39 8 27 6 33 -15 46 -32 22 -38
21 -69 -16z m45 19 c0 -2 -10 -12 -22 -23 l-23 -19 19 23 c18 21 26 27 26 19z
m-60 -71 c-4 -4 -21 -4 -37 2 -28 10 -28 10 9 8 21 0 33 -5 28 -10z m-107 -71
c-3 -9 -8 -14 -10 -11 -3 3 -2 9 2 15 9 16 15 13 8 -4z"/>
<path d="M3240 1075 c-13 -34 -13 -48 2 -63 23 -23 55 -14 68 19 16 39 4 63
-34 67 -20 3 -28 -2 -36 -23z"/>
<path d="M942 1068 c-10 -14 -16 -122 -14 -245 2 -61 5 -74 22 -83 14 -8 26
-8 40 0 16 9 20 21 20 69 0 66 6 71 88 71 l42 0 0 -59 c0 -41 5 -65 16 -75 18
-19 16 -19 48 -6 l26 10 0 153 c0 161 -4 177 -45 177 -33 0 -45 -20 -45 -72
l0 -48 -65 0 -65 0 1 51 c2 34 -2 54 -12 60 -20 12 -45 11 -57 -3z"/>
<path d="M2718 1073 c-27 -7 -32 -38 -29 -183 2 -152 10 -172 58 -154 26 9 28
13 25 61 l-3 52 43 11 c93 25 168 90 168 146 0 59 -75 88 -160 61 -36 -11 -50
-11 -65 -2 -11 7 -28 10 -37 8z m172 -83 c0 -13 -74 -50 -100 -50 -43 0 -16
32 40 48 47 14 60 14 60 2z"/>
<path d="M480 1036 c0 -2 7 -7 16 -10 8 -3 12 -2 9 4 -6 10 -25 14 -25 6z"/>
<path d="M3666 1028 c-3 -7 -6 -22 -8 -33 -2 -12 -12 -21 -25 -23 -35 -5 -48
-28 -34 -58 9 -21 16 -25 36 -20 25 6 25 6 25 -62 0 -97 32 -122 113 -89 81
35 123 102 78 127 -26 13 -24 14 -59 -20 -18 -16 -36 -30 -42 -30 -5 0 -10 20
-10 44 0 46 10 56 55 56 31 0 49 24 41 56 -7 25 -10 26 -51 21 -40 -6 -44 -4
-47 16 -2 17 -11 23 -36 25 -20 2 -34 -2 -36 -10z"/>
<path d="M410 989 c-22 -18 -22 -19 -3 -10 12 6 25 16 28 21 9 15 3 12 -25
-11z"/>
<path d="M490 1000 c-11 -8 -7 -9 15 -4 29 6 29 6 10 -11 -11 -9 -15 -14 -8
-11 17 9 27 -13 13 -29 -15 -18 -9 -19 24 -4 14 7 28 19 31 27 5 12 1 12 -15
-3 -21 -19 -21 -18 -24 25 -1 18 -26 23 -46 10z"/>
<path d="M599 992 c-12 -15 -12 -16 2 -5 11 9 19 9 26 2 8 -8 16 -8 30 1 10 6
12 9 3 7 -8 -2 -22 -1 -31 4 -12 6 -21 3 -30 -9z"/>
<path d="M688 991 c5 -15 18 -26 33 -28 23 -3 23 -2 4 9 -11 6 -26 19 -33 27
-10 14 -11 12 -4 -8z"/>
<path d="M1550 980 c-11 -7 -15 -34 -16 -120 -1 -96 2 -112 17 -120 19 -11 49
-3 61 14 4 6 8 34 8 62 0 44 4 54 25 68 13 9 27 16 30 16 4 0 6 -28 5 -62 -2
-87 -2 -86 20 -98 14 -8 26 -8 40 0 18 10 20 21 20 110 0 87 -3 103 -20 120
-24 24 -51 25 -89 5 -26 -13 -30 -13 -41 0 -14 17 -38 19 -60 5z"/>
<path d="M3071 979 c-54 -11 -81 -30 -107 -75 -27 -46 -31 -92 -9 -133 17 -34
33 -41 87 -41 89 0 158 66 158 151 0 76 -51 115 -129 98z m45 -84 c12 -30 -6
-66 -38 -80 -62 -25 -80 15 -29 66 32 32 58 37 67 14z"/>
<path d="M3367 976 c-10 -11 -13 -42 -13 -121 1 -89 4 -110 18 -118 12 -8 24
-8 42 1 23 10 26 17 26 68 0 46 4 59 23 75 12 10 26 18 30 19 4 0 7 -34 6 -76
-2 -78 5 -93 42 -94 32 0 39 23 39 122 0 85 -3 101 -20 118 -24 24 -39 25 -85
6 -29 -13 -35 -13 -46 0 -15 18 -44 18 -62 0z"/>
<path d="M604 969 c-14 -6 -11 -8 14 -8 36 -1 72 -16 72 -31 0 -5 -24 -11 -52
-13 l-53 -3 62 -2 c34 -1 65 -6 68 -12 3 -5 11 -10 16 -10 6 0 -3 14 -20 31
-17 17 -31 34 -31 39 0 11 -54 18 -76 9z"/>
<path d="M1277 974 c-4 -4 -7 -51 -7 -104 0 -88 2 -98 23 -118 25 -24 66 -28
98 -12 12 7 25 7 37 1 22 -12 59 -4 64 12 2 7 2 59 -1 117 l-6 105 -35 0 -35
0 -3 -65 c-2 -53 -7 -68 -25 -82 -12 -10 -25 -18 -29 -18 -4 0 -8 37 -10 83
l-3 82 -30 3 c-17 2 -34 0 -38 -4z"/>
<path d="M1920 964 c-72 -31 -120 -96 -120 -162 0 -67 61 -93 131 -56 17 8 32
14 34 12 2 -2 -2 -19 -9 -38 -10 -31 -15 -35 -50 -38 -29 -3 -43 2 -58 17 -23
25 -32 26 -52 5 -23 -22 -20 -47 10 -75 22 -21 35 -24 94 -24 74 0 98 13 128
70 20 39 30 252 13 283 -14 27 -68 29 -121 6z m40 -72 c0 -11 -31 -55 -50 -69
-41 -33 -41 5 1 46 30 30 49 39 49 23z"/>
<path d="M2112 968 c-8 -8 -12 -48 -12 -115 0 -99 1 -104 24 -114 17 -8 29 -8
46 1 19 10 21 17 15 57 -5 33 -2 51 10 70 16 23 18 24 35 8 23 -21 69 -13 71
13 2 34 -3 67 -13 80 -13 15 -53 16 -81 1 -16 -9 -22 -9 -25 0 -5 15 -55 14
-70 -1z"/>
<path d="M2332 968 c-21 -21 -13 -42 43 -123 49 -71 53 -81 42 -99 -18 -26
-37 -32 -37 -12 0 9 -11 18 -25 22 -51 13 -74 -42 -35 -84 39 -42 104 -41 143
3 29 31 130 258 125 282 -5 26 -66 31 -74 6 -4 -10 -15 -38 -26 -63 l-19 -45
-20 25 c-11 14 -29 42 -40 63 -20 39 -53 49 -77 25z"/>
<path d="M3242 968 c-16 -16 -16 -210 0 -226 14 -14 37 -15 57 -3 11 7 14 35
14 114 0 57 -3 109 -7 115 -9 16 -49 15 -64 0z"/>
<path d="M750 957 c0 -2 11 -18 24 -35 20 -28 23 -42 20 -100 l-3 -67 9 65 c8
60 6 68 -17 103 -23 33 -33 43 -33 34z"/>
<path d="M415 940 c-3 -6 1 -7 9 -4 18 7 21 14 7 14 -6 0 -13 -4 -16 -10z"/>
<path d="M470 930 c-8 -5 -10 -10 -5 -10 6 0 17 5 25 10 8 5 11 10 5 10 -5 0
-17 -5 -25 -10z"/>
<path d="M410 913 c0 -16 31 -95 36 -90 2 2 -5 25 -16 53 -10 27 -19 43 -20
37z"/>
<path d="M493 901 c-11 -18 -10 -22 10 -33 12 -7 25 -11 29 -10 4 1 41 4 83 6
41 3 79 8 85 11 19 11 10 25 -16 25 -16 0 -23 -4 -18 -11 4 -8 1 -8 -13 0 -22
11 -63 11 -78 0 -15 -11 -64 1 -67 17 -2 11 -6 9 -15 -5z"/>
<path d="M696 863 c-10 -10 -12 -10 -96 -12 -66 -1 -70 -2 -69 -23 1 -19 2
-20 6 -4 4 16 12 18 62 13 40 -5 65 -2 85 8 37 20 54 19 59 -2 4 -16 5 -16 6
-1 0 9 9 19 19 21 9 3 -1 5 -24 6 -22 0 -44 -2 -48 -6z"/>
<path d="M473 833 c9 -2 25 -2 35 0 9 3 1 5 -18 5 -19 0 -27 -2 -17 -5z"/>
<path d="M324 812 c-6 -4 -16 -18 -23 -32 -11 -22 -10 -23 2 -7 20 24 30 21
16 -4 -9 -18 -6 -26 22 -55 39 -41 45 -42 53 -9 7 29 39 33 74 9 21 -15 22
-14 22 15 0 34 -16 40 -50 19 -17 -11 -26 -10 -57 7 -21 11 -40 30 -43 42 -3
13 -9 19 -16 15z m50 -71 c-3 -3 -15 6 -27 18 l-22 24 27 -19 c14 -10 24 -21
22 -23z"/>
<path d="M732 795 c0 -16 2 -22 5 -12 2 9 2 23 0 30 -3 6 -5 -1 -5 -18z"/>
<path d="M468 803 c12 -2 30 -2 40 0 9 3 -1 5 -23 4 -22 0 -30 -2 -17 -4z"/>
<path d="M508 783 c14 -3 22 -10 19 -18 -3 -7 6 -17 21 -24 24 -10 25 -10 10
2 -10 8 -18 22 -18 31 0 11 -8 16 -27 15 -25 -2 -26 -2 -5 -6z"/>
<path d="M722 735 c0 -16 2 -22 5 -12 2 9 2 23 0 30 -3 6 -5 -1 -5 -18z"/>
<path d="M218 739 c-10 -5 -18 -15 -18 -22 0 -8 3 -9 8 -1 4 6 16 16 27 22 11
6 16 11 10 11 -5 0 -18 -4 -27 -10z"/>
<path d="M802 730 c0 -14 2 -19 5 -12 2 6 2 18 0 25 -3 6 -5 1 -5 -13z"/>
<path d="M191 684 c0 -11 3 -14 6 -6 3 7 2 16 -1 19 -3 4 -6 -2 -5 -13z"/>
<path d="M709 698 c-1 -5 -2 -12 -3 -17 0 -5 -4 -13 -8 -17 -5 -4 -8 -12 -8
-18 0 -6 5 -4 10 4 7 12 12 8 21 -18 17 -49 19 -35 4 23 -8 28 -15 47 -16 43z"/>
<path d="M812 657 c-2 -55 -24 -104 -49 -110 -15 -3 -14 -4 1 -3 32 2 58 57
53 113 l-3 48 -2 -48z"/>
<path d="M171 594 c0 -11 3 -14 6 -6 3 7 2 16 -1 19 -3 4 -6 -2 -5 -13z"/>
<path d="M1334 556 c-8 -21 3 -36 27 -36 15 0 20 6 17 22 -4 27 -35 37 -44 14z"/>
<path d="M161 544 c0 -11 3 -14 6 -6 3 7 2 16 -1 19 -3 4 -6 -2 -5 -13z"/>
<path d="M686 545 c-3 -8 -3 -15 0 -15 3 0 12 7 20 15 13 13 13 15 1 15 -8 0
-17 -7 -21 -15z"/>
<path d="M1414 545 c-4 -9 -2 -21 4 -27 15 -15 44 -1 40 19 -4 23 -36 29 -44
8z"/>
<path d="M1470 504 c-11 -12 -10 -18 3 -32 16 -15 18 -15 34 0 13 14 14 20 3
32 -7 9 -16 16 -20 16 -4 0 -13 -7 -20 -16z"/>
<path d="M2074 430 c-2 -86 7 -98 42 -59 15 17 16 23 5 41 -10 17 -10 23 6 40
17 19 17 20 -6 39 -40 33 -46 25 -47 -61z m41 40 c0 -7 -6 -15 -12 -17 -8 -3
-13 4 -13 17 0 13 5 20 13 18 6 -3 12 -11 12 -18z m-5 -75 c0 -8 -4 -17 -10
-20 -6 -4 -10 5 -10 20 0 15 4 24 10 20 6 -3 10 -12 10 -20z"/>
<path d="M2322 485 c-11 -14 -24 -40 -27 -57 -6 -27 -9 -29 -23 -15 -12 13
-13 19 -3 31 17 20 4 56 -20 56 -17 0 -19 -7 -18 -72 1 -51 3 -63 8 -40 l6 34
24 -26 c23 -24 26 -25 47 -11 31 20 37 19 29 -4 -3 -11 -2 -22 4 -25 8 -5 22
73 15 82 -1 2 -12 -6 -23 -17 -45 -45 -51 -7 -9 52 25 36 17 47 -10 12z m-60
-27 c-15 -15 -26 -4 -18 18 5 13 9 15 18 6 9 -9 9 -15 0 -24z"/>
<path d="M2784 484 c-3 -12 2 -38 10 -59 13 -31 14 -41 4 -53 -11 -13 -10 -14
2 -10 21 7 24 41 6 75 -18 37 -10 50 32 51 l33 1 -6 -53 c-5 -35 -3 -56 4 -60
8 -5 11 12 11 53 0 54 2 61 19 61 11 0 22 4 25 8 2 4 -27 7 -65 7 -63 0 -70
-2 -75 -21z"/>
<path d="M3050 495 c-8 -9 -9 -26 -4 -47 4 -18 6 -48 5 -65 -3 -35 9 -42 29
-19 6 8 19 12 28 9 14 -5 15 -3 5 8 -17 18 -16 34 3 53 14 15 14 16 -5 16 -15
0 -21 -6 -21 -21 0 -11 -4 -18 -9 -15 -5 3 -7 23 -4 45 6 42 -7 60 -27 36z
m17 -37 c-3 -8 -6 -5 -6 6 -1 11 2 17 5 13 3 -3 4 -12 1 -19z m13 -67 c0 -6
-4 -13 -10 -16 -5 -3 -10 1 -10 9 0 9 5 16 10 16 6 0 10 -4 10 -9z"/>
<path d="M572 480 c0 -14 2 -19 5 -12 2 6 2 18 0 25 -3 6 -5 1 -5 -13z"/>
<path d="M1651 428 c1 -40 4 -62 6 -48 3 14 13 33 24 43 24 23 24 53 0 67 -11
5 -22 10 -25 10 -3 0 -5 -33 -5 -72z m34 42 c3 -5 3 -15 -1 -21 -6 -11 -23 6
-24 24 0 10 18 9 25 -3z"/>
<path d="M1909 459 c-15 -53 -16 -57 -18 -68 -1 -9 -51 -2 -51 8 0 3 9 20 20
36 11 17 20 33 20 38 0 4 -33 6 -72 6 -40 -1 -61 -4 -45 -6 33 -5 33 -8 2 -49
-30 -39 -23 -45 48 -49 29 -1 60 -5 69 -9 12 -6 17 -2 20 16 4 31 34 36 41 6
12 -46 17 -9 5 43 -16 73 -24 79 -39 28z m-49 4 c0 -17 -53 -73 -71 -73 -24 0
-24 5 2 46 14 24 28 34 45 34 13 0 24 -3 24 -7z m67 -35 c-3 -8 -6 -5 -6 6 -1
11 2 17 5 13 3 -3 4 -12 1 -19z"/>
<path d="M2467 493 c-4 -3 -6 -36 -6 -72 1 -36 4 -54 6 -38 2 15 8 27 12 27
12 0 51 -45 51 -58 0 -7 5 -12 10 -12 6 0 10 6 10 13 0 6 3 22 6 35 4 13 2 22
-5 22 -6 0 -11 -8 -11 -17 0 -14 -5 -13 -26 8 -22 23 -24 29 -13 46 20 33 -9
72 -34 46z m25 -35 c-9 -9 -12 -7 -12 12 0 19 3 21 12 12 9 -9 9 -15 0 -24z"/>
<path d="M2639 428 c3 -40 7 -62 9 -48 2 13 13 35 23 49 23 29 23 35 3 55 -31
32 -39 19 -35 -56z m31 33 c0 -11 -4 -23 -10 -26 -6 -4 -10 5 -10 19 0 14 5
26 10 26 6 0 10 -9 10 -19z"/>
<path d="M2720 458 c-8 -24 -15 -56 -16 -73 l-3 -30 10 28 c13 33 34 35 42 5
12 -46 17 -9 5 43 -15 73 -22 77 -38 27z m17 -30 c-3 -8 -6 -5 -6 6 -1 11 2
17 5 13 3 -3 4 -12 1 -19z"/>
<path d="M2930 458 c-8 -24 -15 -56 -16 -73 l-3 -30 10 28 c13 33 34 35 42 5
12 -46 17 -9 5 43 -15 73 -22 77 -38 27z m17 -30 c-3 -8 -6 -5 -6 6 -1 11 2
17 5 13 3 -3 4 -12 1 -19z"/>
<path d="M3377 493 c-4 -3 -6 -36 -6 -72 1 -49 3 -57 8 -33 l6 34 23 -24 c16
-18 34 -25 60 -25 27 -1 31 1 14 6 -13 3 -23 9 -23 14 1 4 1 13 1 21 0 8 10
17 23 19 l22 4 -22 2 c-32 2 -29 25 5 38 21 9 23 11 7 11 -47 1 -60 -12 -57
-59 l3 -44 -22 22 c-18 18 -20 25 -10 37 23 27 -8 74 -32 49z m25 -35 c-15
-15 -26 -4 -18 18 5 13 9 15 18 6 9 -9 9 -15 0 -24z"/>
<path d="M167 465 c2 -11 11 -50 19 -87 14 -59 19 -68 38 -67 16 1 17 2 4 6
-10 2 -21 17 -24 31 -10 44 -14 61 -19 81 -4 15 0 21 17 24 21 4 20 4 -4 6
-14 0 -28 7 -31 14 -2 6 -2 3 0 -8z"/>
<path d="M1718 438 c-3 -29 -1 -57 4 -62 4 -6 8 18 8 52 0 76 -7 81 -12 10z"/>
<path d="M2190 440 c-7 -27 -16 -50 -20 -50 -5 0 -11 21 -13 48 -3 47 -3 47
-5 -10 -2 -59 7 -78 28 -53 15 18 41 115 30 115 -4 0 -13 -22 -20 -50z"/>
<path d="M2399 480 c-12 -7 -14 -20 -10 -57 6 -45 8 -48 36 -50 28 -2 28 -1 5
5 -33 10 -38 39 -8 51 l23 10 -22 0 c-31 1 -29 17 5 35 22 13 24 15 7 15 -11
0 -27 -4 -36 -9z"/>
<path d="M3200 474 c0 -12 -7 -40 -14 -62 -8 -23 -11 -44 -6 -47 4 -3 12 9 16
27 7 32 7 32 17 11 6 -13 13 -23 17 -23 4 0 12 10 18 23 10 22 11 22 11 -5 1
-16 4 -28 9 -28 4 0 5 27 4 60 -4 69 -17 79 -27 20 -8 -45 -25 -54 -25 -12 0
15 -5 34 -10 42 -8 12 -10 11 -10 -6z"/>
<path d="M3294 445 c-8 -34 1 -55 25 -55 28 0 45 34 31 60 -15 29 -48 26 -56
-5z m46 -14 c0 -11 -5 -23 -11 -27 -15 -9 -33 12 -26 30 9 23 37 20 37 -3z"/>
<path d="M262 454 c14 -4 18 -20 21 -77 l4 -72 -1 75 c-1 67 -3 75 -21 77 -15
1 -16 1 -3 -3z"/>
<path d="M1316 444 c-7 -19 10 -44 29 -44 19 0 36 25 29 44 -3 9 -16 16 -29
16 -13 0 -26 -7 -29 -16z"/>
<path d="M1520 445 c-14 -16 -5 -35 16 -35 15 0 20 35 5 44 -5 3 -14 -1 -21
-9z"/>
<path d="M1267 444 c-15 -15 -7 -45 11 -42 9 2 17 12 17 22 0 20 -16 31 -28
20z"/>
<path d="M1466 438 c3 -5 10 -6 15 -3 13 9 11 12 -6 12 -8 0 -12 -4 -9 -9z"/>
<path d="M1407 426 c-3 -8 1 -20 9 -27 12 -10 18 -9 31 3 8 9 12 21 9 27 -10
16 -43 14 -49 -3z"/>
<path d="M592 385 c0 -16 2 -22 5 -12 2 9 2 23 0 30 -3 6 -5 -1 -5 -18z"/>
<path d="M1476 394 c-7 -19 1 -34 19 -34 21 0 28 19 15 35 -16 19 -26 19 -34
-1z"/>
<path d="M1977 378 c-4 -31 -2 -46 7 -37 10 11 17 69 8 69 -5 0 -12 -15 -15
-32z"/>
<path d="M3585 390 c3 -5 8 -10 11 -10 2 0 4 5 4 10 0 6 -5 10 -11 10 -5 0 -7
-4 -4 -10z"/>
<path d="M1283 364 c-7 -18 11 -39 26 -30 17 11 13 46 -4 46 -9 0 -18 -7 -22
-16z"/>
<path d="M1426 361 c-7 -11 18 -33 27 -24 4 3 7 12 7 20 0 15 -26 18 -34 4z"/>
<path d="M1416 298 c3 -5 10 -6 15 -3 13 9 11 12 -6 12 -8 0 -12 -4 -9 -9z"/>
</g>
</svg>
